<?xml version="1.0" encoding="utf-8"?>
<!-- Generator: Adobe Illustrator 26.0.1, SVG Export Plug-In . SVG Version: 6.00 Build 0)  -->
<svg version="1.0" id="Layer_1" xmlns="http://www.w3.org/2000/svg" xmlns:xlink="http://www.w3.org/1999/xlink" x="0px" y="0px"
	 viewBox="0 0 783.1 238.05" style="enable-background:new 0 0 783.1 238.05;" xml:space="preserve">
<style type="text/css">
	.st0{fill-rule:evenodd;clip-rule:evenodd;fill:#FFFFFF;}
</style>
<g>
	<path class="st0" d="M0,0h172.07v84.47h-19.79c0,0.62,0,1.13,0,1.63c0,11.35,0.02,22.7-0.02,34.05c-0.01,2.25-0.16,4.51-0.42,6.75
		c-0.67,5.87-3.83,8.53-9.76,8.35c-5.11-0.16-8.44-3.21-8.87-8.33c-0.27-3.14-0.23-6.31-0.47-9.45c-0.27-3.59-0.38-7.23-1.11-10.74
		c-2.82-13.58-12.37-21.79-26.25-22.21c-11.57-0.34-23.15-0.12-34.72-0.14c-0.26,0-0.51,0.13-0.77,0.2c0,21.89,0,43.69,0,65.63
		c0.78,0,1.39,0,2,0c8.7,0,17.39,0.06,26.09-0.03c3.15-0.03,6.32-0.26,9.44-0.65c3.63-0.45,7.12-1.52,10.53-3.38
		c-5.27-5.21-7.03-11.73-7.62-19.09c-2.13,3.18-4.68,5.25-7.96,5.7c-3.98,0.55-8.04,0.5-12.14,0.72c0-10.94,0-21.52,0-32.17
		c2.71,0,5.32-0.2,7.88,0.03c9.3,0.83,13.78,5.42,14.33,14.75c0.26,4.44-0.09,8.92,0.3,13.35c0.91,10.13,6.23,17.77,16.66,20.65
		c8.42,2.33,16.96,2.33,25.44,0.24c7.69-1.9,13.16-6.29,15.86-13.71l-0.38,3.43c-8.02,35.61-42.7,62.4-84.28,62.4
		c-41.58,0-76.27-26.8-84.28-62.4l-1.69-15.19H0v-0.57V57.61l53.25,14.17c3.18,0.85,6.45-1.02,7.29-4.18
		c0.86-3.15-1.03-6.4-4.2-7.24L0,45.34v-7.71l53.25,14.17c3.18,0.85,6.45-1.02,7.29-4.18c0.86-3.15-1.03-6.4-4.2-7.24L0,25.37v-7.63
		l53.25,14.28c3.18,0.85,6.45-1.03,7.29-4.21c0.86-3.18-1.03-6.45-4.2-7.3L0,5.41V0L0,0z M116.74,84.45
		c7.77,3.49,12.81,9.43,15.91,17.66c0-6.22,0-11.95,0-17.66C127.26,84.45,122,84.45,116.74,84.45z"/>
	<path class="st0" d="M173.19,237.78l-3.89-3.63l-0.59-1.12h1.58l3.89,3.62L173.19,237.78L173.19,237.78z M163.3,219.89v6.21h5.41
		v-6.21H163.3L163.3,219.89z M172.33,219.89v-1.45h-13.65v1.45h3.04v6.21h-1.06c-0.14,0-0.34,0-0.39,0
		c-0.14,0.06-0.27,0.06-0.34,0.13c-0.13,0.07-0.2,0.13-0.2,0.2c-0.06,0.07-0.13,0.2-0.13,0.32c0,0.21,0.07,0.41,0.2,0.66
		c0.07,0.2,0.2,0.46,0.39,0.66c0.13,0.27,0.33,0.46,0.52,0.73c0.2,0.2,0.41,0.39,0.6,0.59c0.2,0.13,0.45,0.27,0.65,0.39
		c0.2,0.07,0.39,0.13,0.53,0.13c0.2,0,0.32,0,0.46-0.06c0.06-0.07,0.13-0.14,0.2-0.27c0.06-0.07,0.06-0.2,0.13-0.4
		c0-0.13,0-0.34,0-0.53v-1.11h5.41v5.48h1.58v-13.14H172.33L172.33,219.89z M158.68,219.89h-4.09v13.14h-1.58v-9.18
		c-0.34-0.13-0.66-0.2-0.99-0.2c-0.27,0-0.53,0.07-0.79,0.2c-0.21,0.14-0.41,0.27-0.53,0.46c-0.2,0.2-0.27,0.39-0.4,0.66
		c-0.07,0.27-0.07,0.52-0.07,0.79c0,0.14,0,0.2,0,0.34c0,0.13,0,0.26,0,0.33h-1.45c-0.06-0.4-0.13-0.73-0.2-1.06
		c-0.06-0.33-0.2-0.66-0.26-0.93c-0.14-0.26-0.34-0.45-0.53-0.59c-0.2-0.2-0.47-0.27-0.79-0.27c-0.27,0-0.52,0.07-0.79,0.21
		c-0.2,0.13-0.39,0.26-0.53,0.52c-0.13,0.2-0.26,0.46-0.33,0.79c-0.07,0.27-0.07,0.59-0.07,0.93c0,0.72,0.14,1.38,0.34,1.99
		c0.25,0.59,0.66,1.11,1.06,1.58c0.45,0.53,0.92,0.93,1.51,1.25c0.53,0.4,1.18,0.73,1.79,1.06l-0.8,1.32
		c-0.2-0.07-0.52-0.27-0.85-0.46c-0.39-0.2-0.8-0.47-1.2-0.79c-0.45-0.27-0.85-0.66-1.25-1.06c-0.4-0.39-0.79-0.86-1.11-1.39
		c-0.34-0.45-0.59-1.06-0.86-1.65c-0.2-0.59-0.27-1.25-0.27-1.97c0-0.6,0.07-1.06,0.2-1.52c0.2-0.53,0.39-0.93,0.66-1.25
		c0.34-0.34,0.66-0.6,1.06-0.8c0.46-0.2,0.86-0.33,1.38-0.33c0.39,0,0.73,0.07,1,0.13c0.26,0.14,0.52,0.27,0.72,0.46
		c0.2,0.14,0.33,0.34,0.46,0.46c0.13,0.2,0.26,0.4,0.32,0.52h0.07c0.13-0.26,0.27-0.52,0.46-0.65c0.13-0.2,0.32-0.41,0.52-0.46
		c0.2-0.14,0.46-0.2,0.66-0.27c0.27-0.07,0.46-0.13,0.66-0.13c0.26,0,0.45,0.06,0.65,0.06c0.2,0.07,0.34,0.14,0.53,0.2v-2.44h-10.95
		v-1.45h16.62V219.89L158.68,219.89z M130.59,225.17v-1.45c-0.2,0-0.34,0.07-0.39,0.07c-0.41,0-0.66-0.07-0.93-0.21
		c-0.27-0.13-0.52-0.26-0.72-0.45c-0.14-0.2-0.27-0.39-0.41-0.66c-0.06-0.27-0.13-0.53-0.13-0.73c0-0.2,0.07-0.39,0.13-0.66
		c0.07-0.2,0.14-0.33,0.27-0.52c0.14-0.2,0.34-0.34,0.59-0.39c0.2-0.14,0.46-0.2,0.86-0.2c0.4,0,0.79,0.13,1.13,0.26
		c0.32,0.2,0.59,0.46,0.86,0.73c0.2,0.33,0.39,0.66,0.45,1.06c0.14,0.33,0.2,0.73,0.2,1.13c0,0.4-0.06,0.72-0.2,1.11
		c-0.06,0.34-0.2,0.6-0.39,0.93c-0.2,0.27-0.4,0.52-0.59,0.73c-0.2,0.2-0.46,0.4-0.72,0.52c-0.2,0.2-0.46,0.32-0.66,0.39
		c-0.27,0.14-0.46,0.2-0.59,0.27c-0.39-0.27-0.73-0.46-1.13-0.59c-0.33-0.14-0.72-0.2-1.06-0.2c-0.52,0-0.92,0.13-1.18,0.32
		c-0.33,0.27-0.46,0.53-0.46,0.99c0,0.2,0.07,0.46,0.2,0.66c0.14,0.2,0.27,0.34,0.47,0.53c0.2,0.13,0.46,0.2,0.73,0.27
		c0.26,0.06,0.59,0.13,0.85,0.13c0.27,0,0.53,0,0.8-0.07c0.26-0.06,0.45-0.13,0.72-0.27c0.46,0.34,0.93,0.66,1.38,1.13
		c0.4,0.4,0.79,0.79,1.2,1.2c0.39,0.4,0.72,0.79,1.04,1.11c0.27,0.4,0.53,0.73,0.73,0.93l1.12-0.93c-0.26-0.27-0.52-0.66-0.85-0.99
		c-0.34-0.4-0.66-0.79-1-1.18c-0.39-0.41-0.79-0.73-1.12-1.13c-0.39-0.34-0.73-0.66-1.06-0.93l0,0c0.52-0.27,0.93-0.59,1.32-0.99
		c0.45-0.34,0.79-0.73,1.04-1.13c0.34-0.46,0.53-0.92,0.73-1.38c0.13-0.46,0.2-1,0.2-1.45c0-0.34,0-0.66-0.07-0.93
		c-0.06-0.32-0.13-0.59-0.26-0.93c-0.07-0.26-0.2-0.52-0.34-0.72c-0.2-0.27-0.32-0.46-0.46-0.66l0,0h3.63v13.14h1.65v-13.14h3.89
		v-1.45h-17.74v1.45h2.7l0,0c-0.2,0.27-0.33,0.59-0.46,0.93c-0.07,0.26-0.13,0.59-0.13,0.92c0,0.46,0.06,0.93,0.27,1.32
		c0.13,0.46,0.4,0.79,0.65,1.13c0.34,0.33,0.73,0.59,1.13,0.79c0.4,0.2,0.92,0.27,1.45,0.27c0.07,0,0.2,0,0.32,0
		C130.32,225.24,130.45,225.17,130.59,225.17L130.59,225.17z M120.23,218.44h-1.25l-0.4-0.34c-0.46-0.39-0.93-0.79-1.32-1.13
		c-0.39-0.32-0.72-0.52-1.06-0.72c-0.26-0.27-0.52-0.4-0.79-0.53c-0.2-0.06-0.46-0.13-0.66-0.2c-0.2-0.06-0.39-0.13-0.59-0.13
		c-0.13,0-0.33,0-0.59,0h-1.85v-1.38h1.72c0.32,0,0.59,0,0.79,0.06c0.27,0,0.52,0.07,0.72,0.2c0.2,0.07,0.46,0.2,0.66,0.34
		c0.27,0.13,0.46,0.32,0.79,0.52c0.27,0.2,0.53,0.46,0.86,0.73c0.34,0.32,0.73,0.66,1.13,1.06l0.06-0.07
		c-0.39-0.59-0.72-1.13-0.99-1.58c-0.32-0.46-0.59-0.86-0.79-1.13c-0.27-0.34-0.46-0.59-0.66-0.79c-0.2-0.2-0.4-0.39-0.59-0.46
		c-0.2-0.14-0.39-0.2-0.59-0.27c-0.2,0-0.4-0.07-0.66-0.07h-1.85v-1.38h1.79c0.39,0,0.72,0,0.99,0.07c0.32,0.06,0.59,0.2,0.86,0.39
		c0.26,0.2,0.52,0.46,0.79,0.79c0.27,0.32,0.59,0.73,0.92,1.25c0.27,0.53,0.66,1.13,1.06,1.85c0.34,0.66,0.79,1.52,1.32,2.51
		L120.23,218.44L120.23,218.44z M124.32,219.89v-1.45h-7.12v1.45h1.51v13.14h1.59v-13.14H124.32L124.32,219.89z M104.53,223.72
		c-0.39,0-0.66,0.07-0.99,0.27c-0.27,0.13-0.53,0.33-0.73,0.52c-0.13,0.27-0.33,0.53-0.4,0.86c-0.06,0.27-0.13,0.53-0.13,0.86
		c0,0.32,0.07,0.59,0.13,0.93c0.14,0.33,0.27,0.59,0.53,0.86c0.2,0.2,0.39,0.4,0.72,0.59c0.27,0.13,0.59,0.2,0.93,0.2
		c0.32,0,0.59-0.07,0.92-0.2c0.34-0.07,0.59-0.27,0.93-0.53c0.26-0.27,0.45-0.59,0.66-0.99c0.13-0.39,0.26-0.86,0.26-1.39v-0.45
		c-0.2-0.2-0.32-0.39-0.59-0.6c-0.2-0.2-0.39-0.32-0.66-0.45c-0.26-0.14-0.52-0.27-0.79-0.34
		C105.06,223.79,104.8,223.72,104.53,223.72L104.53,223.72z M117.2,219.89v-1.45H99.26v1.45h8.05v3.56l0,0
		c-0.14-0.13-0.34-0.27-0.53-0.4c-0.2-0.13-0.39-0.27-0.66-0.39c-0.26-0.14-0.52-0.27-0.86-0.34c-0.25-0.06-0.59-0.13-0.92-0.13
		c-0.52,0-0.99,0.07-1.45,0.27c-0.39,0.2-0.79,0.46-1.13,0.79c-0.32,0.39-0.59,0.79-0.72,1.25c-0.2,0.46-0.33,0.99-0.33,1.59
		c0,0.52,0.13,1.11,0.33,1.65c0.2,0.46,0.46,0.92,0.86,1.32c0.32,0.4,0.72,0.65,1.25,0.92c0.45,0.2,0.99,0.34,1.58,0.34
		c0.33,0,0.66-0.07,0.93-0.14c0.26-0.06,0.52-0.2,0.72-0.27c0.2-0.13,0.39-0.26,0.52-0.39c0.14-0.06,0.27-0.2,0.41-0.25l0,0v3.76
		h1.65v-6.61c0.06-0.27,0.13-0.52,0.33-0.86c0.2-0.27,0.39-0.59,0.66-0.86c0.26-0.27,0.52-0.47,0.86-0.66
		c0.33-0.13,0.65-0.26,0.99-0.26c0.27,0,0.52,0.06,0.72,0.2c0.2,0.06,0.4,0.26,0.59,0.45c0.14,0.14,0.27,0.41,0.34,0.66
		c0.06,0.2,0.13,0.53,0.13,0.8c0,0.26-0.07,0.59-0.13,0.85c-0.14,0.27-0.27,0.53-0.39,0.73c-0.14,0.27-0.34,0.46-0.53,0.66
		c-0.2,0.2-0.39,0.4-0.59,0.52c-0.2,0.2-0.39,0.34-0.59,0.46c-0.2,0.07-0.33,0.2-0.46,0.27l0.86,1.52c0.39-0.27,0.79-0.53,1.18-0.86
		c0.39-0.27,0.8-0.66,1.13-1.06c0.32-0.39,0.59-0.86,0.79-1.39c0.2-0.45,0.32-1.06,0.32-1.65c0-0.52-0.13-0.99-0.26-1.45
		c-0.2-0.46-0.39-0.86-0.73-1.18c-0.26-0.34-0.59-0.59-0.99-0.8c-0.4-0.2-0.86-0.33-1.32-0.33c-0.59,0-1.12,0.2-1.65,0.46
		c-0.45,0.27-0.92,0.59-1.24,1.06l0,0v-3.83H117.2L117.2,219.89z M90.75,219.89h-5.14c0.27,0.59,0.46,1.19,0.59,1.79
		c0.2,0.59,0.27,1.18,0.27,1.78c0,0.27,0,0.53-0.07,0.79c-0.07,0.27-0.13,0.53-0.2,0.73v0.07h4.55V219.89L90.75,219.89z
		 M94.44,218.44v1.45H92.4v12.67c0.14,0.02,0.27,0.05,0.39,0.07c0.33,0.13,0.66,0.26,0.92,0.52c0.27,0.2,0.46,0.46,0.6,0.79
		c0.13,0.34,0.2,0.66,0.2,1.06c0,0.41-0.07,0.8-0.27,1.2c-0.13,0.33-0.4,0.66-0.73,0.92c-0.32,0.27-0.72,0.53-1.25,0.66
		c-0.45,0.14-1.05,0.27-1.65,0.27c-0.79,0-1.44-0.13-1.97-0.32c-0.59-0.21-1.11-0.46-1.58-0.73c-0.46-0.32-0.86-0.66-1.25-0.99
		c-0.34-0.39-0.66-0.73-0.93-1.06l0.93-1.06c0.4,0.4,0.72,0.72,1.06,1.06c0.33,0.32,0.72,0.59,1.06,0.86
		c0.4,0.2,0.79,0.39,1.18,0.52c0.4,0.14,0.92,0.2,1.45,0.2c0.4,0,0.79-0.06,1.11-0.13c0.34-0.14,0.59-0.2,0.8-0.34
		c0.2-0.13,0.32-0.32,0.39-0.52c0.13-0.13,0.13-0.34,0.13-0.53c0-0.32-0.07-0.59-0.33-0.79c-0.27-0.2-0.6-0.27-1.06-0.27
		c-0.27,0-0.59,0-0.93,0.14c-0.39,0.06-0.79,0.27-1.11,0.46l-0.66-1.25c0.4-0.27,0.86-0.46,1.38-0.6c0.15-0.04,0.31-0.08,0.46-0.11
		v-6.16h-5.61c-0.33,0.27-0.79,0.39-1.25,0.39v0.07c0.59,0.99,1.32,1.92,2.04,2.78c0.79,0.86,1.65,1.65,2.58,2.37l-1.06,1.2
		c-0.53-0.39-1.06-0.86-1.58-1.32c-0.46-0.46-0.93-0.99-1.39-1.45c-0.46-0.53-0.86-1.06-1.25-1.59c-0.33-0.52-0.72-1.06-1.06-1.51
		c-0.26-0.53-0.59-1-0.85-1.52c-0.2-0.46-0.46-0.86-0.66-1.32l1.38-0.66c0.13,0.27,0.2,0.53,0.32,0.66c0.14,0.2,0.27,0.39,0.41,0.46
		c0.13,0.13,0.26,0.2,0.4,0.27c0.13,0.06,0.26,0.06,0.39,0.06c0.45,0,0.79-0.13,0.99-0.52c0.27-0.34,0.32-0.79,0.32-1.39
		c0-0.33,0-0.65-0.06-0.99c-0.07-0.33-0.2-0.66-0.27-0.93c-0.13-0.33-0.2-0.59-0.32-0.85c-0.14-0.27-0.27-0.53-0.34-0.73h-4.16
		v-1.45H94.44L94.44,218.44z M77.66,214.02c-0.34-0.33-0.6-0.52-0.86-0.66c-0.2-0.2-0.53-0.26-0.86-0.26c-0.46,0-0.93,0.2-1.18,0.52
		c-0.34,0.32-0.47,0.86-0.47,1.45c0,0.27,0,0.53,0.06,0.86c0.07,0.27,0.14,0.53,0.27,0.86c0.14,0.27,0.27,0.53,0.39,0.79
		c0.2,0.34,0.34,0.59,0.59,0.86h-1.65c-0.4-0.59-0.65-1.12-0.85-1.72c-0.2-0.59-0.34-1.18-0.34-1.72c0-0.52,0.14-0.99,0.27-1.45
		c0.2-0.39,0.39-0.79,0.72-1.06c0.27-0.26,0.59-0.52,1-0.66c0.39-0.13,0.79-0.2,1.18-0.2c0.59,0,1.06,0.07,1.51,0.34
		c0.46,0.2,0.86,0.59,1.25,1.06L77.66,214.02L77.66,214.02z M68.85,219.89v6.21h5.34v-6.21H68.85L68.85,219.89z M79.73,219.89v-1.45
		H64.3v1.45h2.97v6.21h-1.06c-0.2,0-0.34,0-0.46,0c-0.13,0.06-0.2,0.06-0.32,0.13c-0.07,0.07-0.14,0.13-0.2,0.2
		c-0.07,0.07-0.07,0.2-0.07,0.32c0,0.21,0.07,0.41,0.13,0.66c0.14,0.2,0.27,0.46,0.39,0.66c0.2,0.27,0.34,0.46,0.53,0.73
		c0.2,0.2,0.47,0.39,0.66,0.59c0.2,0.13,0.39,0.27,0.65,0.39c0.2,0.07,0.41,0.13,0.53,0.13c0.2,0,0.33,0,0.4-0.06
		c0.13-0.07,0.2-0.14,0.27-0.27c0.06-0.07,0.06-0.2,0.06-0.4c0.07-0.13,0.07-0.34,0.07-0.53v-1.11h5.34v5.48h1.58v-13.14H79.73
		L79.73,219.89z M49.59,223.72c-0.4,0-0.72,0.07-0.99,0.27c-0.33,0.13-0.52,0.33-0.72,0.52c-0.2,0.27-0.34,0.53-0.39,0.86
		c-0.14,0.27-0.2,0.53-0.2,0.86c0,0.32,0.06,0.59,0.2,0.93c0.13,0.33,0.26,0.59,0.45,0.86c0.2,0.2,0.46,0.4,0.73,0.59
		c0.32,0.13,0.59,0.2,0.99,0.2c0.27,0,0.59-0.07,0.93-0.2c0.26-0.07,0.59-0.27,0.85-0.53c0.27-0.27,0.53-0.59,0.66-0.99
		c0.2-0.39,0.27-0.86,0.27-1.39v-0.45c-0.13-0.2-0.33-0.39-0.52-0.6c-0.2-0.2-0.46-0.32-0.73-0.45c-0.2-0.14-0.46-0.27-0.72-0.34
		C50.12,223.79,49.86,223.72,49.59,223.72L49.59,223.72z M64.3,219.89H53.94v3.83h0.07c0.33-0.46,0.73-0.79,1.25-1.06
		c0.46-0.27,0.99-0.46,1.58-0.46c0.46,0,0.93,0.13,1.32,0.33c0.4,0.21,0.72,0.46,1.06,0.8c0.26,0.33,0.52,0.72,0.66,1.18
		c0.2,0.46,0.26,0.93,0.26,1.45c0,0.59-0.06,1.2-0.33,1.65c-0.2,0.53-0.46,1-0.79,1.39c-0.34,0.4-0.66,0.79-1.06,1.06
		c-0.46,0.33-0.86,0.59-1.25,0.86l-0.86-1.52c0.13-0.07,0.27-0.2,0.46-0.27c0.2-0.13,0.4-0.27,0.59-0.46
		c0.2-0.13,0.4-0.33,0.59-0.52c0.2-0.2,0.39-0.39,0.59-0.66c0.14-0.2,0.27-0.46,0.34-0.73c0.13-0.26,0.2-0.59,0.2-0.85
		c0-0.27-0.07-0.6-0.14-0.8c-0.13-0.26-0.26-0.52-0.4-0.66c-0.13-0.2-0.32-0.39-0.52-0.45c-0.27-0.14-0.46-0.2-0.73-0.2
		c-0.32,0-0.66,0.13-0.99,0.26c-0.32,0.2-0.59,0.39-0.86,0.66c-0.26,0.27-0.52,0.59-0.66,0.86c-0.2,0.34-0.33,0.59-0.4,0.86v6.61
		h-1.58v-3.76H52.3c-0.06,0.06-0.2,0.2-0.33,0.25c-0.2,0.14-0.32,0.27-0.59,0.39c-0.2,0.07-0.4,0.21-0.73,0.27
		c-0.26,0.07-0.59,0.14-0.92,0.14c-0.53,0-1.13-0.14-1.59-0.34c-0.45-0.27-0.92-0.52-1.24-0.92c-0.34-0.41-0.66-0.86-0.86-1.32
		c-0.2-0.53-0.27-1.13-0.27-1.65c0-0.6,0.07-1.13,0.27-1.59c0.2-0.46,0.45-0.86,0.79-1.25c0.27-0.33,0.66-0.59,1.11-0.79
		c0.41-0.2,0.86-0.27,1.39-0.27c0.33,0,0.66,0.07,0.99,0.13c0.27,0.07,0.59,0.2,0.79,0.34c0.27,0.13,0.53,0.27,0.73,0.39
		c0.2,0.13,0.32,0.27,0.45,0.4h0.07v-3.56h-8.12v-1.45H64.3V219.89L64.3,219.89z M37,233.23c-0.34,0-0.6-0.14-0.8-0.34
		c-0.2-0.2-0.32-0.45-0.32-0.79c0-0.27,0.13-0.52,0.32-0.72c0.2-0.27,0.47-0.34,0.8-0.34c0.26,0,0.52,0.07,0.72,0.34
		c0.27,0.2,0.32,0.45,0.32,0.72c0,0.34-0.06,0.59-0.32,0.79C37.53,233.09,37.26,233.23,37,233.23L37,233.23z M37,224.98
		c-0.34,0-0.6-0.13-0.8-0.34c-0.2-0.2-0.32-0.45-0.32-0.79c0-0.27,0.13-0.52,0.32-0.72c0.2-0.27,0.47-0.34,0.8-0.34
		c0.26,0,0.52,0.07,0.72,0.34c0.27,0.2,0.32,0.45,0.32,0.72c0,0.34-0.06,0.59-0.32,0.79C37.53,224.85,37.26,224.98,37,224.98
		L37,224.98z M32.98,219.89h-2.04v13.14h-1.65v-13.14h-4.42v7.59c0,0.07,0,0.2,0,0.32c0,0.14,0,0.27-0.06,0.41
		c-0.07,0.13-0.14,0.26-0.2,0.33c-0.14,0.07-0.27,0.13-0.39,0.13c-0.2,0-0.39-0.06-0.6-0.2c-0.2-0.06-0.4-0.26-0.65-0.4
		c-0.2-0.2-0.39-0.39-0.66-0.66c-0.2-0.26-0.34-0.45-0.53-0.72c-0.13-0.27-0.26-0.46-0.4-0.73c-0.06-0.2-0.13-0.46-0.13-0.59
		c0-0.2,0.07-0.33,0.13-0.4c0.07-0.13,0.2-0.2,0.34-0.27c0.13,0,0.32-0.07,0.52-0.07c0.2,0,0.46,0,0.73,0h0.32v-4.75h-3.1v-1.45
		h12.8V219.89L32.98,219.89z M15.96,218.44h-1.4l-0.78-1.39c-0.33-0.72-0.72-1.25-0.99-1.71c-0.33-0.41-0.59-0.73-0.93-0.93
		c-0.26-0.27-0.52-0.39-0.79-0.46c-0.26,0-0.52-0.07-0.86-0.07H8.37v-1.58h1.79c0.32,0,0.72,0.07,0.99,0.07
		c0.32,0.06,0.59,0.2,0.86,0.32c0.32,0.2,0.59,0.39,0.86,0.73c0.26,0.26,0.52,0.59,0.85,1.06c0.27,0.45,0.6,0.99,0.93,1.58
		c0.4,0.66,0.79,1.39,1.25,2.24L15.96,218.44L15.96,218.44z M20.18,219.89v-1.45h-7.06v1.45h1.52v13.14h1.58v-13.14H20.18
		L20.18,219.89z M4.55,219.89c0.2,0.4,0.4,0.79,0.52,1.32c0.14,0.46,0.2,0.92,0.2,1.38c0,0.34-0.06,0.59-0.13,0.93
		c-0.07,0.32-0.2,0.59-0.4,0.86c-0.2,0.32-0.39,0.52-0.66,0.72c-0.27,0.27-0.59,0.4-0.99,0.53c0.13,0.46,0.27,0.79,0.46,1.11
		c0.2,0.34,0.4,0.6,0.66,0.8c0.2,0.2,0.52,0.32,0.79,0.39c0.32,0.13,0.65,0.13,0.99,0.13c0.32,0,0.66,0,0.99-0.13
		c0.32-0.07,0.66-0.14,0.99-0.34c0.27-0.13,0.53-0.33,0.79-0.52c0.27-0.2,0.46-0.39,0.66-0.66v-6.54H4.55L4.55,219.89z
		 M13.12,219.89v-1.45H0v1.45h2.77c0.2,0.27,0.33,0.46,0.45,0.73c0.14,0.26,0.2,0.45,0.27,0.72c0.13,0.2,0.13,0.39,0.2,0.59
		c0,0.2,0,0.4,0,0.53c0,0.27,0,0.52-0.13,0.72c-0.07,0.27-0.2,0.46-0.39,0.66c-0.2,0.2-0.4,0.34-0.73,0.53
		c-0.32,0.13-0.66,0.2-1.11,0.26c0.13,0.66,0.26,1.27,0.45,1.86c0.2,0.59,0.46,1.11,0.86,1.58c0.34,0.46,0.79,0.79,1.32,1.13
		c0.52,0.27,1.18,0.4,1.97,0.4c0.34,0,0.73-0.07,1.06-0.13c0.32-0.07,0.66-0.14,0.99-0.27c0.27-0.07,0.53-0.2,0.79-0.34
		c0.27-0.13,0.46-0.32,0.66-0.45l0,0v4.62h1.65v-13.14H13.12z"/>
	<path class="st0" d="M279.53,174.39c0,17.39-7.1,28.91-25.55,28.91c-17.71,0-24.37-11.26-24.37-27.87V133.5h7.95v41.37
		c0,5.31,0.79,11.64,4.25,15.91c3.22,3.97,8.14,5.14,13.06,5.14c12.78,0,16.7-8.76,16.7-20.4V133.5h7.95V174.39L279.53,174.39z
		 M309.54,146.68c0.03,0.92,0.03,1.84,0.03,2.75v52.71h-7.95V133.5h8.17l36.8,53.44c0.37,0.57,0.75,1.14,1.11,1.71
		c0-0.09-0.01-0.17-0.01-0.26c-0.06-1.43-0.08-2.86-0.08-4.29V133.5h8.03v68.65h-7.76l-37.43-54.09
		C310.14,147.6,309.83,147.15,309.54,146.68L309.54,146.68z M386.53,202.15h-7.95V133.5h7.95V202.15L386.53,202.15z M430.62,190.37
		c0.28-0.99,0.61-1.96,0.96-2.92l19.95-53.95h8.58l-26.05,68.65h-7.28L401.8,133.5h8.81l19.15,54.04
		C430.09,188.47,430.37,189.42,430.62,190.37L430.62,190.37z M483.34,140.97v22.73h24.47v7.38h-24.47v23.69h27.91v7.37h-35.86V133.5
		h34.36v7.47H483.34L483.34,140.97z M538.76,172.99v29.15h-7.95V133.5h20.13c2.58,0,5.12,0.37,7.58,1.16
		c2.38,0.76,4.59,1.9,6.54,3.46c1.97,1.58,3.52,3.53,4.65,5.79c1.25,2.52,1.75,5.28,1.75,8.08c0,2.32-0.33,4.64-1.12,6.83
		c-0.74,2.04-1.8,3.92-3.22,5.56c-1.43,1.66-3.13,3.01-5.02,4.09c-1.48,0.84-3.04,1.5-4.66,1.99c0.3,0.19,0.59,0.4,0.87,0.62
		c0.85,0.67,1.6,1.45,2.29,2.28c0.79,0.94,1.49,1.95,2.14,2.98c0.78,1.24,1.49,2.51,2.16,3.79l11.93,22.02h-9.25l-10.31-19.66
		c-0.84-1.6-1.77-3.19-2.83-4.66c-0.77-1.06-1.67-2.1-2.71-2.9c-0.87-0.67-1.84-1.18-2.9-1.48c-1.16-0.33-2.36-0.46-3.57-0.46
		H538.76L538.76,172.99z M607.31,203.29c-1.29,0-2.6-0.11-3.88-0.26c-1.52-0.18-3.02-0.44-4.51-0.76c-1.47-0.32-2.93-0.72-4.36-1.2
		c-1.19-0.4-2.39-0.9-3.46-1.57l-0.41-0.26v-9.52l1.39,1.05c1.11,0.84,2.33,1.56,3.57,2.18c1.3,0.64,2.64,1.19,4.02,1.64
		c1.35,0.43,2.73,0.76,4.13,0.99c1.31,0.22,2.64,0.34,3.97,0.34c3.56,0,7.92-0.49,10.83-2.75c2.49-1.94,3.44-4.64,3.44-7.74
		c0-1.46-0.22-2.96-0.82-4.3c-0.59-1.32-1.48-2.45-2.54-3.43c-1.38-1.27-2.97-2.36-4.57-3.32c-2.21-1.32-4.44-2.6-6.7-3.84
		c-2.52-1.39-5.04-2.84-7.41-4.46c-1.86-1.26-3.65-2.71-5.15-4.39c-1.3-1.46-2.35-3.12-3.02-4.97c-0.7-1.93-0.96-4-0.96-6.05
		c0-2.7,0.54-5.31,1.82-7.69c1.22-2.27,2.86-4.19,4.9-5.76c2.15-1.65,4.57-2.83,7.15-3.63c2.81-0.87,5.73-1.25,8.67-1.25
		c4.52,0,9.34,0.52,13.54,2.26l0.54,0.22v8.93l-1.3-0.75c-4.12-2.38-8.73-3.29-13.46-3.29c-1.82,0-3.63,0.2-5.39,0.69
		c-1.55,0.43-3.02,1.07-4.33,2c-1.19,0.85-2.16,1.91-2.86,3.2c-0.74,1.36-1.04,2.87-1.04,4.41c0,1.4,0.16,2.87,0.7,4.18
		c0.51,1.25,1.33,2.34,2.29,3.28c1.27,1.25,2.78,2.31,4.31,3.22c2.22,1.32,4.48,2.57,6.75,3.79c2.52,1.35,5.03,2.8,7.39,4.41
		c1.93,1.32,3.79,2.82,5.36,4.56c1.38,1.53,2.51,3.25,3.27,5.17c0.77,1.95,1.08,4,1.08,6.09c0,2.8-0.47,5.58-1.71,8.11
		c-1.14,2.34-2.75,4.31-4.83,5.86c-2.18,1.62-4.67,2.73-7.28,3.45C613.47,202.97,610.38,203.29,607.31,203.29L607.31,203.29z
		 M657.69,202.15h-7.95V133.5h7.95V202.15L657.69,202.15z M701.54,140.97v61.18h-7.95v-61.18h-19.31v-7.47h46.57v7.47H701.54
		L701.54,140.97z M760.75,176.43v25.71h-7.95v-25.58l-21.57-43.07h8.99l15.55,31.74c0.28,0.57,0.53,1.16,0.77,1.74
		c0.14,0.33,0.27,0.66,0.4,0.99c0.02-0.05,0.04-0.09,0.06-0.14c0.4-0.87,0.83-1.73,1.28-2.55l16.24-31.78h8.59L760.75,176.43
		L760.75,176.43z M538.76,140.97v24.65h10.22c1.99,0,3.98-0.26,5.86-0.92c1.66-0.58,3.18-1.44,4.48-2.63
		c1.25-1.14,2.19-2.51,2.86-4.07c0.74-1.71,1.03-3.57,1.03-5.42c0-3.31-0.94-6.27-3.45-8.49c-2.77-2.46-6.69-3.11-10.27-3.11H538.76
		z"/>
	<path class="st0" d="M229.43,103.91V0h36.83c36.9,0,55.35,16.87,55.35,50.66c0,16.18-5.05,29.09-15.11,38.76
		c-10.07,9.67-23.47,14.49-40.24,14.49H229.43L229.43,103.91z M252.85,19.05v65.87h11.6c10.14,0,18.08-3.04,23.87-9.13
		c5.76-6.09,8.66-14.37,8.66-24.86c0-9.89-2.87-17.68-8.58-23.35c-5.74-5.69-13.75-8.53-24.09-8.53H252.85L252.85,19.05z
		 M398.36,103.91H376.7V93.25h-0.3c-4.97,8.31-12.34,12.47-22.11,12.47c-7.2,0-12.86-2.03-16.99-6.11
		c-4.13-4.08-6.18-9.55-6.18-16.35c0-14.39,8.53-22.71,25.57-24.93l20.16-2.67c0-8.11-4.4-12.17-13.21-12.17
		c-8.83,0-17.24,2.62-25.2,7.89V34.13c3.19-1.66,7.54-3.09,13.08-4.35c5.52-1.26,10.56-1.88,15.11-1.88
		c21.15,0,31.73,10.56,31.73,31.66V103.91L398.36,103.91z M376.84,73.76v-5l-13.48,1.73c-7.44,0.97-11.15,4.33-11.15,10.09
		c0,2.6,0.89,4.75,2.7,6.41c1.83,1.66,4.28,2.5,7.37,2.5c4.3,0,7.79-1.48,10.51-4.45C375.48,82.07,376.84,78.31,376.84,73.76
		L376.84,73.76z M464.9,50.36c-2.77-1.51-5.99-2.25-9.65-2.25c-4.97,0-8.85,1.83-11.67,5.47c-2.79,3.66-4.2,8.61-4.2,14.89v35.44
		h-22.88v-74.2h22.88v13.78h0.3c3.64-10.07,10.14-15.09,19.56-15.09c2.42,0,4.3,0.3,5.66,0.87V50.36L464.9,50.36z M471.7,101.95
		V83.4c3.78,2.28,7.54,3.96,11.28,5.07c3.73,1.11,7.27,1.66,10.61,1.66c4.06,0,7.27-0.54,9.6-1.66c2.35-1.11,3.51-2.79,3.51-5.07
		c0-1.46-0.52-2.67-1.58-3.64c-1.06-0.97-2.42-1.81-4.11-2.52c-1.66-0.72-3.49-1.39-5.47-1.95c-1.98-0.59-3.88-1.24-5.71-1.95
		c-2.94-1.11-5.54-2.33-7.79-3.59c-2.25-1.29-4.13-2.77-5.66-4.48c-1.51-1.68-2.67-3.64-3.46-5.86c-0.79-2.23-1.21-4.85-1.21-7.89
		c0-4.16,0.91-7.74,2.72-10.73c1.81-2.99,4.23-5.44,7.25-7.35c3.02-1.91,6.48-3.31,10.36-4.2c3.88-0.89,7.94-1.34,12.14-1.34
		c3.29,0,6.6,0.25,9.99,0.77c3.39,0.49,6.73,1.24,10.02,2.2v17.68c-2.92-1.71-6.01-2.97-9.32-3.81c-3.31-0.84-6.55-1.26-9.75-1.26
		c-1.51,0-2.92,0.12-4.23,0.4c-1.34,0.25-2.52,0.64-3.54,1.16c-1.01,0.49-1.81,1.14-2.37,1.95c-0.59,0.79-0.87,1.71-0.87,2.72
		c0,1.34,0.42,2.5,1.29,3.46c0.89,0.97,2,1.81,3.41,2.5c1.41,0.72,2.97,1.33,4.67,1.88c1.71,0.57,3.41,1.14,5.12,1.71
		c3.04,1.06,5.79,2.23,8.26,3.49c2.45,1.26,4.58,2.72,6.33,4.43c1.76,1.68,3.12,3.66,4.06,5.94c0.94,2.28,1.41,4.97,1.41,8.11
		c0,4.4-0.94,8.16-2.87,11.28c-1.9,3.12-4.43,5.64-7.59,7.59c-3.17,1.95-6.83,3.39-10.96,4.28c-4.13,0.89-8.41,1.34-12.86,1.34
		C486.22,105.71,478.67,104.45,471.7,101.95L471.7,101.95z M613.1,103.91h-22.83V61.74c0-10.88-3.96-16.3-11.9-16.3
		c-4.06,0-7.35,1.51-9.84,4.55c-2.52,3.04-3.78,6.93-3.78,11.6v42.32h-22.88V0h22.88v40.71h0.3c5.61-8.53,13.21-12.81,22.83-12.81
		c16.82,0,25.23,10.14,25.23,30.42V103.91L613.1,103.91z M692.94,103.91h-21.67V93.25h-0.3c-4.97,8.31-12.34,12.47-22.11,12.47
		c-7.2,0-12.86-2.03-16.99-6.11c-4.13-4.08-6.18-9.55-6.18-16.35c0-14.39,8.53-22.71,25.58-24.93l20.16-2.67
		c0-8.11-4.4-12.17-13.21-12.17c-8.83,0-17.24,2.62-25.2,7.89V34.13c3.19-1.66,7.54-3.09,13.08-4.35
		c5.52-1.26,10.56-1.88,15.11-1.88c21.15,0,31.73,10.56,31.73,31.66V103.91L692.94,103.91z M671.43,73.76v-5l-13.48,1.73
		c-7.44,0.97-11.15,4.33-11.15,10.09c0,2.6,0.89,4.75,2.7,6.41c1.83,1.66,4.28,2.5,7.37,2.5c4.3,0,7.79-1.48,10.51-4.45
		C670.07,82.07,671.43,78.31,671.43,73.76L671.43,73.76z M782.73,103.91H759.9V62.68c0-11.5-4.11-17.24-12.32-17.24
		c-3.96,0-7.22,1.51-9.77,4.55c-2.57,3.04-3.86,6.93-3.86,11.6v42.32h-22.88v-74.2h22.88v11.75h0.3
		c5.47-9.05,13.41-13.55,23.84-13.55c16.42,0,24.63,10.19,24.63,30.57V103.91z"/>
</g>
</svg>
